<?xml version="1.0" encoding="iso-8859-1"?>
<!-- Generator: Adobe Illustrator 16.0.0, SVG Export Plug-In . SVG Version: 6.00 Build 0)  -->
<!DOCTYPE svg PUBLIC "-//W3C//DTD SVG 1.1//EN" "http://www.w3.org/Graphics/SVG/1.1/DTD/svg11.dtd">
<svg version="1.1" id="Capa_1" xmlns="http://www.w3.org/2000/svg" xmlns:xlink="http://www.w3.org/1999/xlink" x="0px" y="0px"
	 width="94px" height="94px" viewBox="0 0 94 94" style="enable-background:new 0 0 94 94;" xml:space="preserve">
<g>
	<path d="M89,0H5C2.238,0,0,2.239,0,5v84c0,2.761,2.238,5,5,5h84c2.762,0,5-2.239,5-5V5C94,2.239,91.762,0,89,0z M45.104,32.657
		h8.509v5.738h-8.509V32.657z M39.357,62.541H24.416v-6.432h1.43v-7.853c0-3.703-4.196-2.395-4.196,3.718v4.135h1.26v6.432H8.03
		v-6.432h2.712V37.07H8.03v-6.557h13.619v13.9c1.793-2.89,4.226-4.857,8.253-4.857c5.706,0,6.563,4.944,6.563,6.907v9.646h2.893
		L39.357,62.541L39.357,62.541z M56.325,62.541H40.061v-6.432h2.646v-9.583h-2.711v-6.581h13.617v16.164h2.712V62.541z
		 M71.33,63.486c-6.241,0-11.416-2.322-13.277-5.758c-1.925-3.549-0.414-9.025,4.271-9.035c3.058-0.004,4.988,1.355,4.342,4.847
		c-0.811,2.353,0.73,3.132,2.223,3.132c2.26,0,3.979-2.604,4.096-5.259c0.108-2.496-0.916-4.923-3.217-4.949
		c-0.935-0.01-2.043,0.341-3.102,1.632l-8.043-1.084l3.047-16.498h21.91l-0.396,8.638H68.725l-0.332,2.765
		c2.08-0.921,4.571-1.55,6.863-1.55c6.08,0,10.988,3.067,10.701,11.078C85.957,57.626,80.9,63.486,71.33,63.486z"/>
</g>
<g>
</g>
<g>
</g>
<g>
</g>
<g>
</g>
<g>
</g>
<g>
</g>
<g>
</g>
<g>
</g>
<g>
</g>
<g>
</g>
<g>
</g>
<g>
</g>
<g>
</g>
<g>
</g>
<g>
</g>
</svg>
