<?xml version="1.0" encoding="iso-8859-1"?>
<!-- Generator: Adobe Illustrator 16.0.0, SVG Export Plug-In . SVG Version: 6.00 Build 0)  -->
<!DOCTYPE svg PUBLIC "-//W3C//DTD SVG 1.1//EN" "http://www.w3.org/Graphics/SVG/1.1/DTD/svg11.dtd">
<svg version="1.1" id="Capa_1" xmlns="http://www.w3.org/2000/svg" xmlns:xlink="http://www.w3.org/1999/xlink" x="0px" y="0px"
	 width="32px" height="32px" viewBox="0 0 32 32" style="enable-background:new 0 0 32 32;" xml:space="preserve">
<g>
	<path d="M0,0v32h32V0H0z M23.92,12.371c-0.895,5.037-5.889,9.301-7.393,10.275c-1.502,0.975-2.875-0.39-3.37-1.422
		c-0.57-1.177-2.275-7.554-2.722-8.083c-0.446-0.527-1.787,0.529-1.787,0.529L8,12.819c0,0,2.721-3.25,4.791-3.657
		c2.196-0.431,2.193,3.373,2.722,5.481c0.51,2.042,0.854,3.21,1.299,3.21c0.447,0,1.301-1.139,2.233-2.885
		c0.935-1.746-0.04-3.291-1.868-2.193C17.908,8.391,24.814,7.336,23.92,12.371z"/>
</g>
<g>
</g>
<g>
</g>
<g>
</g>
<g>
</g>
<g>
</g>
<g>
</g>
<g>
</g>
<g>
</g>
<g>
</g>
<g>
</g>
<g>
</g>
<g>
</g>
<g>
</g>
<g>
</g>
<g>
</g>
</svg>
